<svg width="105" height="13" viewBox="0 0 105 13" fill="none" xmlns="http://www.w3.org/2000/svg">
<path d="M9.92969 6.04688C9.92969 7.95312 9.40365 9.42188 8.35156 10.4531C7.30469 11.4844 5.83073 12 3.92969 12H0.234375V0.578125H4.1875C6.02083 0.578125 7.4349 1.04688 8.42969 1.98438C9.42969 2.92188 9.92969 4.27604 9.92969 6.04688ZM6.72656 6.15625C6.72656 5.10938 6.51823 4.33333 6.10156 3.82812C5.6901 3.32292 5.0625 3.07031 4.21875 3.07031H3.32031V9.46875H4.00781C4.94531 9.46875 5.63281 9.19792 6.07031 8.65625C6.50781 8.10938 6.72656 7.27604 6.72656 6.15625ZM15.0703 7.84375V12H11.9844V0.578125H15.7266C18.8307 0.578125 20.3828 1.70312 20.3828 3.95312C20.3828 5.27604 19.737 6.29948 18.4453 7.02344L21.7734 12H18.2734L15.8516 7.84375H15.0703ZM15.0703 5.52344H15.6484C16.7266 5.52344 17.2656 5.04688 17.2656 4.09375C17.2656 3.30729 16.737 2.91406 15.6797 2.91406H15.0703V5.52344ZM29.5938 12H22.8125V0.578125H29.5938V3.05469H25.8984V4.85156H29.3203V7.32812H25.8984V9.48438H29.5938V12ZM38.6016 12L38.0391 9.85938H34.3281L33.75 12H30.3594L34.0859 0.53125H38.2031L41.9766 12H38.6016ZM37.3984 7.32812L36.9062 5.45312C36.7917 5.03646 36.651 4.4974 36.4844 3.83594C36.3229 3.17448 36.2161 2.70052 36.1641 2.41406C36.1172 2.67969 36.0234 3.11719 35.8828 3.72656C35.7474 4.33594 35.4427 5.53646 34.9688 7.32812H37.3984ZM48.1953 12L45.8594 3.77344H45.7891C45.8984 5.17448 45.9531 6.26302 45.9531 7.03906V12H43.2188V0.578125H47.3281L49.7109 8.6875H49.7734L52.1094 0.578125H56.2266V12H53.3906V6.99219C53.3906 6.73177 53.3932 6.44271 53.3984 6.125C53.4089 5.80729 53.4453 5.02865 53.5078 3.78906H53.4375L51.1328 12H48.1953ZM67.9297 2.94531C67.1953 2.94531 66.6224 3.2474 66.2109 3.85156C65.7995 4.45052 65.5938 5.27865 65.5938 6.33594C65.5938 8.53385 66.4297 9.63281 68.1016 9.63281C68.6068 9.63281 69.0964 9.5625 69.5703 9.42188C70.0443 9.28125 70.5208 9.11198 71 8.91406V11.5234C70.0469 11.9453 68.9688 12.1562 67.7656 12.1562C66.0417 12.1562 64.7188 11.6562 63.7969 10.6562C62.8802 9.65625 62.4219 8.21094 62.4219 6.32031C62.4219 5.13802 62.6432 4.09896 63.0859 3.20312C63.5339 2.30729 64.1745 1.61979 65.0078 1.14062C65.8464 0.65625 66.8307 0.414062 67.9609 0.414062C69.1953 0.414062 70.375 0.682292 71.5 1.21875L70.5547 3.64844C70.1328 3.45052 69.7109 3.28385 69.2891 3.14844C68.8672 3.01302 68.4141 2.94531 67.9297 2.94531ZM83.9219 6.27344C83.9219 8.19531 83.4505 9.65625 82.5078 10.6562C81.5651 11.6562 80.1849 12.1562 78.3672 12.1562C76.5755 12.1562 75.2005 11.6536 74.2422 10.6484C73.2891 9.64323 72.8125 8.17969 72.8125 6.25781C72.8125 4.35677 73.2865 2.90625 74.2344 1.90625C75.1875 0.901042 76.5703 0.398438 78.3828 0.398438C80.2005 0.398438 81.5781 0.895833 82.5156 1.89062C83.4531 2.88542 83.9219 4.34635 83.9219 6.27344ZM76.0625 6.27344C76.0625 8.48177 76.8307 9.58594 78.3672 9.58594C79.1484 9.58594 79.7266 9.31771 80.1016 8.78125C80.4818 8.24479 80.6719 7.40885 80.6719 6.27344C80.6719 5.13281 80.4792 4.29167 80.0938 3.75C79.7135 3.20312 79.1432 2.92969 78.3828 2.92969C76.8359 2.92969 76.0625 4.04427 76.0625 6.27344ZM95.6797 6.04688C95.6797 7.95312 95.1536 9.42188 94.1016 10.4531C93.0547 11.4844 91.5807 12 89.6797 12H85.9844V0.578125H89.9375C91.7708 0.578125 93.1849 1.04688 94.1797 1.98438C95.1797 2.92188 95.6797 4.27604 95.6797 6.04688ZM92.4766 6.15625C92.4766 5.10938 92.2682 4.33333 91.8516 3.82812C91.4401 3.32292 90.8125 3.07031 89.9688 3.07031H89.0703V9.46875H89.7578C90.6953 9.46875 91.3828 9.19792 91.8203 8.65625C92.2578 8.10938 92.4766 7.27604 92.4766 6.15625ZM104.516 12H97.7344V0.578125H104.516V3.05469H100.82V4.85156H104.242V7.32812H100.82V9.48438H104.516V12Z" fill="white"/>
</svg>
